<svg xmlns="http://www.w3.org/2000/svg" width="124" height="29" fill="none"><path fill="#394149" d="M55.01 14.5C55.4 14.5 55.49 14.63 55.49 14.98V16.88C55.5006 17.3275 55.4109 17.7718 55.2275 18.1801 55.0441 18.5885 54.7716 18.9506 54.43 19.24 53.5817 19.9155 52.5121 20.2506 51.43 20.18 48.84 20.18 47.43 18.79 47.43 16.48V13.38C47.43 11.1 48.89 9.7 51.43 9.7 53.43 9.7 54.73 10.49 55.28 12.07 55.3108 12.1294 55.3273 12.1951 55.3282 12.2619 55.3291 12.3288 55.3144 12.395 55.2853 12.4551 55.2562 12.5153 55.2134 12.5679 55.1604 12.6087 55.1074 12.6494 55.0456 12.6773 54.98 12.69L54.2 12.96C53.86 13.08 53.72 13.01 53.6 12.66 53.4343 12.2329 53.131 11.8731 52.738 11.6377 52.345 11.4023 51.8848 11.3045 51.43 11.36 49.96 11.36 49.16 12.07 49.16 13.36V16.54C49.16 17.85 49.97 18.54 51.43 18.54 52.89 18.54 53.79 17.87 53.79 16.89V16.15H51.62C51.26 16.15 51.13 16.01 51.13 15.66V14.98C51.13 14.63 51.26 14.5 51.62 14.5H55.01zM59.62 13.44C59.62 11.13 61.08 9.74 63.62 9.74 66.16 9.74 67.62 11.13 67.62 13.44V16.52C67.62 18.83 66.15 20.22 63.62 20.22 61.09 20.22 59.62 18.83 59.62 16.52V13.44zM65.93 13.44C65.93 12.14 65.12 11.44 63.67 11.44 62.22 11.44 61.4 12.15 61.4 13.44V16.54C61.4 17.85 62.21 18.54 63.67 18.54 65.13 18.54 65.93 17.82 65.93 16.54V13.44zM72.33 10.24C72.33 10.02 72.4 9.95 72.62 9.95H73.08C73.3 9.95 73.35 10.02 73.35 10.24V19.72C73.35 19.94 73.35 20.01 73.08 20.01H72.62C72.4 20.01 72.33 19.94 72.33 19.72V10.24zM82.46 9.95C83.2928 9.95 84.0914 10.2808 84.6803 10.8697 85.2692 11.4586 85.6 12.2572 85.6 13.09 85.6 13.9228 85.2692 14.7215 84.6803 15.3103 84.0914 15.8992 83.2928 16.23 82.46 16.23H79.46V19.72C79.46 19.94 79.41 20.01 79.2 20.01H78.73C78.52 20.01 78.44 19.94 78.44 19.72V10.24C78.44 10.02 78.52 9.95 78.73 9.95H82.46zM82.37 15.24C82.6563 15.24 82.9398 15.1836 83.2043 15.0741 83.4687 14.9645 83.7091 14.8039 83.9115 14.6015 84.1139 14.3991 84.2745 14.1587 84.3841 13.8943 84.4936 13.6298 84.55 13.3463 84.55 13.06 84.55 12.7737 84.4936 12.4902 84.3841 12.2257 84.2745 11.9613 84.1139 11.7209 83.9115 11.5185 83.7091 11.3161 83.4687 11.1555 83.2043 11.0459 82.9398 10.9364 82.6563 10.88 82.37 10.88H79.37V15.24H82.37zM93.41 9.75C94.1821 9.66479 94.961 9.83089 95.6312 10.2236 96.3014 10.6164 96.827 11.2148 97.13 11.93 97.21 12.09 97.13 12.22 96.97 12.3L96.53 12.5C96.35 12.57 96.28 12.56 96.17 12.37 95.9434 11.8392 95.5539 11.3942 95.0578 11.0994 94.5616 10.8045 93.9845 10.6752 93.41 10.73 91.72 10.73 90.8 11.4 90.8 12.6 90.7902 12.9667 90.9134 13.3246 91.1468 13.6077 91.3802 13.8907 91.7081 14.0798 92.07 14.14 92.6078 14.3154 93.1655 14.4229 93.73 14.46 94.4133 14.4964 95.0874 14.6346 95.73 14.87 96.2226 15.0259 96.6466 15.3465 96.9307 15.7781 97.2147 16.2097 97.3416 16.7259 97.29 17.24 97.29 19.11 95.93 20.24 93.43 20.24 92.61 20.3338 91.7826 20.1438 91.0857 19.7016 90.3888 19.2595 89.8644 18.5918 89.6 17.81 89.5824 17.7744 89.5728 17.7353 89.572 17.6955 89.5713 17.6557 89.5793 17.6163 89.5955 17.58 89.6118 17.5437 89.6358 17.5114 89.666 17.4855 89.6961 17.4595 89.7317 17.4406 89.77 17.43L90.21 17.27C90.2447 17.2558 90.2819 17.249 90.3193 17.25 90.3567 17.251 90.3935 17.2598 90.4274 17.2758 90.4613 17.2918 90.4914 17.3146 90.516 17.3429 90.5405 17.3712 90.5589 17.4042 90.57 17.44 90.7937 18.0049 91.1915 18.4839 91.7057 18.8076 92.22 19.1312 92.8239 19.2827 93.43 19.24 95.32 19.24 96.25 18.58 96.25 17.24 96.2676 16.8878 96.1597 16.5407 95.9454 16.2605 95.7312 15.9804 95.4245 15.7853 95.08 15.71 94.5626 15.5557 94.029 15.4617 93.49 15.43L92.41 15.29C92.072 15.2183 91.7382 15.1281 91.41 15.02 91.0858 14.9221 90.7836 14.7625 90.52 14.55 90.2547 14.3098 90.0456 14.0142 89.9073 13.6841 89.7691 13.354 89.7051 12.9976 89.72 12.64 89.79 10.89 91.1 9.75 93.41 9.75zM102.68 16.59C102.722 17.2972 103.033 17.9615 103.549 18.4472 104.065 18.9329 104.747 19.2033 105.455 19.2033 106.163 19.2033 106.845 18.9329 107.361 18.4472 107.877 17.9615 108.188 17.2972 108.23 16.59V10.24C108.23 10.02 108.3 9.95 108.52 9.95H108.98C109.2 9.95 109.27 10.02 109.27 10.24V16.58C109.27 18.85 107.93 20.22 105.46 20.22 102.99 20.22 101.65 18.85 101.65 16.58V10.24C101.65 10.02 101.72 9.95 101.93 9.95H102.4C102.61 9.95 102.68 10.02 102.68 10.24V16.59zM123.07 9.95C123.29 9.95 123.36 10.02 123.36 10.24V19.72C123.36 19.94 123.29 20.01 123.07 20.01H122.65C122.44 20.01 122.37 19.94 122.37 19.72V13.95C122.37 13.1105 122.427 12.2719 122.54 11.44H122.48C122.168 12.2007 121.803 12.9391 121.39 13.65L119.24 17.44C119.214 17.5058 119.168 17.562 119.109 17.6013 119.05 17.6405 118.981 17.661 118.91 17.66H118.63C118.558 17.6603 118.488 17.6397 118.427 17.6006 118.367 17.5616 118.319 17.5058 118.29 17.44L116.11 13.61C115.723 12.9093 115.389 12.1806 115.11 11.43H115.05C115.152 12.2695 115.206 13.1143 115.21 13.96V19.72C115.21 19.94 115.14 20.01 114.92 20.01H114.53C114.31 20.01 114.24 19.94 114.24 19.72V10.24C114.24 10.02 114.31 9.95 114.53 9.95H114.89C114.972 9.94234 115.055 9.96033 115.127 10.0015 115.198 10.0427 115.255 10.105 115.29 10.18L118.79 16.4 122.27 10.24C122.38 10.03 122.44 10 122.66 10L123.07 9.95zM8.73 17.79V25.02C8.73 25.2972 8.6199 25.563 8.42393 25.7589 8.22795 25.9549 7.96215 26.065 7.685 26.065 7.40785 26.065 7.14205 25.9549 6.94608 25.7589 6.7501 25.563 6.64 25.2972 6.64 25.02V17.8C6.93096 18.0125 7.27983 18.1311 7.64 18.14 8.03264 18.1512 8.41729 18.0277 8.73 17.79V17.79zM17.63 15.7C17.3648 15.7 17.1104 15.8054 16.9229 15.9929 16.7354 16.1804 16.63 16.4348 16.63 16.7V17.96C16.63 18.2372 16.7401 18.503 16.9361 18.6989 17.132 18.8949 17.3978 19.005 17.675 19.005 17.9522 19.005 18.218 18.8949 18.4139 18.6989 18.6099 18.503 18.72 18.2372 18.72 17.96V16.75C18.7278 16.6066 18.7046 16.4632 18.652 16.3296 18.5994 16.196 18.5187 16.0752 18.4152 15.9756 18.3118 15.876 18.1881 15.7998 18.0527 15.7522 17.9172 15.7047 17.773 15.6869 17.63 15.7V15.7zM4.37 20.53C4.01017 20.5192 3.66183 20.4008 3.37 20.19V27.44C3.37 27.7185 3.48062 27.9856 3.67754 28.1825 3.87445 28.3794 4.14152 28.49 4.42 28.49 4.69848 28.49 4.96555 28.3794 5.16246 28.1825 5.35938 27.9856 5.47 27.7185 5.47 27.44V20.24C5.14345 20.4511 4.75816 20.5527 4.37 20.53V20.53zM14.37 13.53C14.2345 13.5232 14.0991 13.5441 13.9719 13.5913 13.8448 13.6385 13.7286 13.7111 13.6303 13.8046 13.5321 13.8982 13.454 14.0107 13.4006 14.1354 13.3473 14.2601 13.3198 14.3944 13.32 14.53V20.1C13.32 20.3785 13.4306 20.6456 13.6275 20.8425 13.8245 21.0394 14.0915 21.15 14.37 21.15 14.6485 21.15 14.9156 21.0394 15.1125 20.8425 15.3094 20.6456 15.42 20.3785 15.42 20.1V14.6C15.428 14.4557 15.4046 14.3114 15.3514 14.177 15.2982 14.0426 15.2166 13.9213 15.112 13.8215 15.0074 13.7217 14.8825 13.6457 14.7458 13.5989 14.6091 13.552 14.4638 13.5353 14.32 13.55L14.37 13.53zM11.05 15.67C10.6733 15.6674 10.3067 15.5487 10 15.33V22.6C10 22.8785 10.1106 23.1456 10.3075 23.3425 10.5045 23.5394 10.7715 23.65 11.05 23.65 11.3285 23.65 11.5955 23.5394 11.7925 23.3425 11.9894 23.1456 12.1 22.8785 12.1 22.6V15.34C11.7828 15.5763 11.3955 15.6995 11 15.69L11.05 15.67zM2.1 21.24V.93C2.09737.682434 1.99717.445905 1.82117.271778 1.64517.0976509 1.40758-.0000140086 1.16 1.50713e-9H.940001C.69242-.0000140086.454831.0976509.278831.271778.102832.445905.00263383.682434 0 .93V21.24C0 21.4893.0990359 21.7284.27532 21.9047.451604 22.081.690697 22.18.940001 22.18H1.16C1.40931 22.18 1.6484 22.081 1.82468 21.9047 2.00097 21.7284 2.1 21.4893 2.1 21.24V21.24zM4.48 19.76H4.26C4.0107 19.76 3.7716 19.661 3.59532 19.4847 3.41904 19.3084 3.32 19.0693 3.32 18.82V3.35C3.32264 3.10244 3.42283 2.8659 3.59883 2.69178 3.77483 2.51765 4.01242 2.41999 4.26 2.42H4.48C4.72758 2.41999 4.96517 2.51765 5.14117 2.69178 5.31717 2.8659 5.41737 3.10244 5.42 3.35V18.84C5.42 19.0893 5.32096 19.3284 5.14468 19.5047 4.9684 19.681 4.7293 19.78 4.48 19.78V19.76zM7.79 17.38H7.56C7.31335 17.38 7.0768 17.282 6.90239 17.1076 6.72798 16.9332 6.63 16.6967 6.63 16.45V5.75C6.62868 5.62703 6.65176 5.50502 6.6979 5.39103 6.74405 5.27704 6.81234 5.17334 6.89883 5.08592 6.98532 4.9985 7.08829 4.9291 7.20178 4.88174 7.31527 4.83438 7.43703 4.80999 7.56 4.81H7.79C8.03757 4.81264 8.2741 4.91283 8.44823 5.08883 8.62235 5.26483 8.72002 5.50242 8.72 5.75V16.45C8.72 16.6967 8.62202 16.9332 8.44761 17.1076 8.2732 17.282 8.03665 17.38 7.79 17.38V17.38zM11.1 14.93H10.89C10.6424 14.93 10.4048 14.8324 10.2288 14.6582 10.0528 14.4841 9.95263 14.2476 9.95 14V8.24C9.94179 8.11161 9.96002 7.98289 10.0036 7.86183 10.0471 7.74076 10.1151 7.62993 10.2032 7.53619 10.2913 7.44244 10.3977 7.36778 10.5159 7.31684 10.634 7.26589 10.7613 7.23974 10.89 7.24H11.11C11.3593 7.24 11.5984 7.33904 11.7747 7.51532 11.951 7.6916 12.05 7.9307 12.05 8.18V13.98C12.0513 14.1043 12.028 14.2276 11.9813 14.3428 11.9347 14.458 11.8657 14.5628 11.7782 14.6512 11.6908 14.7395 11.5868 14.8096 11.472 14.8575 11.3573 14.9054 11.2343 14.93 11.11 14.93H11.1zM14.42 12.78H14.2C13.9507 12.78 13.7116 12.681 13.5353 12.5047 13.359 12.3284 13.26 12.0893 13.26 11.84V10.35C13.2626 10.1024 13.3628 9.8659 13.5388 9.69178 13.7148 9.51765 13.9524 9.41999 14.2 9.42H14.42C14.6676 9.41999 14.9052 9.51765 15.0812 9.69178 15.2572 9.8659 15.3574 10.1024 15.36 10.35V11.84C15.36 12.0876 15.2624 12.3252 15.0882 12.5012 14.9141 12.6772 14.6776 12.7774 14.43 12.78H14.42zM26.52 9.95C26.88 9.95 27 10.08 27 10.43V18.35H31.07C31.42 18.35 31.55 18.48 31.55 18.83V19.53C31.55 19.88 31.42 20.01 31.07 20.01H25.71C25.36 20.01 25.22 19.88 25.22 19.53V10.43C25.22 10.08 25.36 9.95 25.71 9.95H26.52zM35.1 13.44C35.1 11.13 36.56 9.74 39.1 9.74 41.64 9.74 43.1 11.13 43.1 13.44V16.52C43.1 18.83 41.63 20.22 39.1 20.22 36.57 20.22 35.1 18.83 35.1 16.52V13.44zM41.42 13.44C41.42 12.14 40.61 11.44 39.15 11.44 37.69 11.44 36.89 12.15 36.89 13.44V16.54C36.89 17.85 37.69 18.54 39.15 18.54 40.61 18.54 41.42 17.82 41.42 16.54V13.44z"/></svg>
